<svg xmlns="http://www.w3.org/2000/svg" width="37" height="37" fill="none"><rect width="35" height="35" x="1" y="1" stroke="#fff" rx="17.5"/><path fill="#fff" d="M22.497 15.389a.9.9 0 1 1-.003-1.8.9.9 0 0 1 .003 1.8"/><path fill="#fff" fill-rule="evenodd" d="M18.507 22.35a3.85 3.85 0 1 1-.015-7.7 3.85 3.85 0 0 1 .015 7.7M18.495 16a2.5 2.5 0 1 0 .01 5 2.5 2.5 0 0 0-.01-5" clip-rule="evenodd"/><path fill="#fff" fill-rule="evenodd" d="M13.575 11.404c.476-.187 1.02-.314 1.819-.352.8-.038 1.055-.047 3.091-.051s2.293.004 3.093.04c.798.034 1.343.16 1.82.344.494.19.913.447 1.33.863s.675.833.868 1.326c.186.477.314 1.022.352 1.82.038.8.047 1.055.051 3.092s-.004 2.292-.04 3.092c-.034.798-.16 1.343-.344 1.82-.191.494-.447.913-.862 1.33a3.7 3.7 0 0 1-1.327.868c-.477.186-1.022.314-1.82.352-.8.038-1.055.047-3.092.051s-2.291-.004-3.091-.039c-.799-.035-1.344-.16-1.821-.345a3.7 3.7 0 0 1-1.33-.862 3.7 3.7 0 0 1-.868-1.327c-.187-.477-.314-1.022-.352-1.82-.038-.8-.047-1.055-.051-3.092s.004-2.291.039-3.091c.035-.799.16-1.344.345-1.822.19-.493.447-.912.863-1.33a3.7 3.7 0 0 1 1.327-.867m.514 12.95c.264.103.661.224 1.392.256.792.034 1.028.042 3.03.038 2.003-.004 2.24-.012 3.031-.05.73-.034 1.128-.157 1.392-.26.35-.137.6-.3.861-.563a2.3 2.3 0 0 0 .56-.863c.102-.265.223-.662.255-1.393.035-.791.042-1.028.038-3.03-.004-2.003-.012-2.24-.05-3.031-.034-.73-.157-1.128-.26-1.392-.137-.35-.3-.6-.563-.861a2.3 2.3 0 0 0-.864-.56c-.264-.102-.661-.223-1.392-.255-.791-.035-1.028-.042-3.031-.038-2.002.004-2.239.012-3.03.05-.73.034-1.127.157-1.392.26-.35.137-.6.3-.861.563a2.3 2.3 0 0 0-.56.864c-.101.264-.223.662-.255 1.392-.034.791-.042 1.029-.038 3.03.004 2.003.012 2.24.05 3.03.034.732.158 1.129.26 1.393.137.35.3.6.563.861.263.262.513.424.864.56" clip-rule="evenodd"/></svg>