<svg xmlns="http://www.w3.org/2000/svg" width="37" height="37" fill="none"><rect width="35" height="35" x="1" y="1" stroke="#fff" rx="17.5"/><path fill="#fff" d="M23.772 15.738q.009.18.007.36c0 3.67-2.477 7.902-7.005 7.902v-.002c-1.338.002-2.648-.43-3.774-1.245q.292.04.586.04c1.109 0 2.185-.419 3.058-1.191-1.054-.023-1.978-.798-2.3-1.93.369.081.749.065 1.111-.047-1.149-.262-1.975-1.4-1.975-2.722v-.035c.342.215.726.334 1.118.347-1.082-.816-1.416-2.439-.762-3.708 1.25 1.735 3.094 2.79 5.074 2.901-.199-.964.072-1.975.712-2.653.991-1.052 2.55-.998 3.483.12a4.6 4.6 0 0 0 1.564-.674c-.184.643-.569 1.189-1.083 1.536A4.5 4.5 0 0 0 25 14.3a5.4 5.4 0 0 1-1.229 1.438"/></svg>