<svg xmlns="http://www.w3.org/2000/svg" width="37" height="37" fill="none"><rect width="35" height="35" x="1" y="1" stroke="#fff" rx="17.5"/><path fill="#fff" fill-rule="evenodd" d="M18 27a8 8 0 1 0 0-16 8 8 0 0 0 0 16m1.735-1.475A6.8 6.8 0 0 1 18 25.75a6.7 6.7 0 0 1-2.564-.504c.75-2.77 2.825-4.753 5.201-5.636.412 1.997.105 4.14-.902 5.915m1.777-.76a9.97 9.97 0 0 0 .376-5.512 7.5 7.5 0 0 1 2.858-.035 6.75 6.75 0 0 1-3.234 5.548m3.147-6.877a8.9 8.9 0 0 0-3.13.114 9.6 9.6 0 0 0-.757-1.622 9.7 9.7 0 0 0 2.295-1.84 6.73 6.73 0 0 1 1.592 3.348m-2.54-4.236a8.4 8.4 0 0 1-2.08 1.652 10 10 0 0 0-1.802-1.776l-.016-.013-.017-.011-.005-.003-.015-.01-.046-.035-.065-.049-.004-.003-.06-.045-.142-.105a2 2 0 0 0-.126-.085l-.03-.02a5 5 0 0 0-.24-.16 4 4 0 0 0-.254-.159l-.185-.106-.035-.02-.019-.01v-.001l-.017-.009-.007-.004-.03-.017-.03-.016-.004-.004-.017-.01a3 3 0 0 0-.163-.092l-.013-.007-.015-.008-.015-.007-.142-.068h-.001l-.055-.027a6.77 6.77 0 0 1 5.65 1.229m-7.428-.537a6.8 6.8 0 0 0-2.445 2.354 8.2 8.2 0 0 0 2.273.76h.004a8.3 8.3 0 0 0 4.299-.364 8.7 8.7 0 0 0-1.54-1.429l-.17-.127-.04-.028-.003-.002-.02-.01-.022-.016-.09-.061c-.059-.042-.106-.074-.155-.103l-.031-.019-.029-.021-.001-.001-.044-.028-.116-.07-.161-.093-.005-.003-.049-.027-.001-.001-.01-.006-.006-.003-.037-.02-.105-.062-.088-.05h-.002l-.144-.069-.289-.137-.008-.003-.035-.018c-.123-.057-.269-.112-.433-.174l-.11-.042a9 9 0 0 0-.317-.104zm-3.015 3.52a9.5 9.5 0 0 0 2.614.87 9.6 9.6 0 0 0 3.434-.002 9.3 9.3 0 0 0 1.879-.55q.404.672.675 1.407c-2.712.977-5.078 3.183-6.014 6.263A6.74 6.74 0 0 1 11.25 19c0-.832.15-1.63.426-2.365" clip-rule="evenodd"/></svg>