<svg xmlns="http://www.w3.org/2000/svg" width="37" height="37" fill="none"><rect width="35" height="35" x="1" y="1" stroke="#fff" rx="17.5"/><path fill="#fff" fill-rule="evenodd" d="M26.149 13.838c.248.244.426.547.517.88C27 15.942 27 18.5 27 18.5s0 2.557-.334 3.783c-.091.332-.27.635-.518.879s-.557.42-.897.51C24 24 19 24 19 24s-5 0-6.25-.328c-.34-.09-.65-.267-.899-.51a1.95 1.95 0 0 1-.517-.88C11 21.058 11 18.5 11 18.5s0-2.557.335-3.783c.09-.332.268-.635.516-.879.249-.243.558-.42.898-.51C14 13 19 13 19 13s5 0 6.25.328c.34.09.65.267.898.51M21.545 18.5l-4.182-2.322v4.644z" clip-rule="evenodd"/></svg>