<svg xmlns="http://www.w3.org/2000/svg" width="131" height="50" fill="none"><path stroke="url(#a)" stroke-width=".8" d="M23 1v47.5M23 1l22 36H34.5M23 1l11.5 36M23 1 1 37h10.5M23 1 11.5 37M23 48.5 34.5 37M23 48.5 11.5 37"/><path fill="url(#b)" d="M63.896 19.4v.806h-7.34V19.4zm-4.41-4.277h.806v16.333q0 1.391.322 2.11.337.703.88.952.555.234 1.186.234.453 0 .805-.03.352-.044.762-.102l.132.747a3.5 3.5 0 0 1-.835.132q-.513.044-.82.044-1.011 0-1.743-.352-.718-.366-1.114-1.26-.38-.892-.38-2.475zm18.472 17.153v-8.188q0-1.319-.571-2.256-.557-.938-1.64-1.436-1.07-.498-2.623-.498-1.435 0-2.593.513-1.143.498-1.816 1.377a3.2 3.2 0 0 0-.66 1.978l-.79-.03q0-.922.424-1.758a4.9 4.9 0 0 1 1.216-1.479 6 6 0 0 1 1.86-1.01 7.1 7.1 0 0 1 2.359-.382q1.655 0 2.915.557 1.275.557 1.992 1.67t.718 2.783v7.94q0 .849.103 1.713.117.865.307 1.348v.132h-.908q-.146-.57-.22-1.377a18 18 0 0 1-.073-1.597m.352-5.874.029.806h-4.131q-1.537 0-2.754.308-1.215.292-2.065.835-.85.54-1.304 1.289a3.13 3.13 0 0 0-.454 1.655q0 .953.513 1.743.526.79 1.45 1.26.922.469 2.124.469 1.67 0 2.959-.542a6.2 6.2 0 0 0 2.182-1.553 6.8 6.8 0 0 0 1.363-2.358l.351.732a6.6 6.6 0 0 1-.835 1.626 6.5 6.5 0 0 1-1.391 1.45q-.85.645-2.007 1.04-1.143.381-2.622.381-1.48 0-2.578-.542-1.1-.557-1.7-1.523-.6-.982-.6-2.242 0-1.054.498-1.933.498-.894 1.435-1.538.953-.66 2.315-1.011 1.362-.352 3.076-.352zm5.756-7.002h.791v17.74q0 1.45-.498 2.46t-1.435 1.524q-.923.527-2.241.527-.367 0-.718-.073a4 4 0 0 1-.718-.22l.044-.761q.234.088.615.175.366.089.777.088 1.084 0 1.83-.44a2.83 2.83 0 0 0 1.158-1.273q.395-.835.395-2.007zm-.337-4.95q0-.338.235-.572a.76.76 0 0 1 .571-.25q.337 0 .571.25.25.235.25.571a.76.76 0 0 1-.25.572.78.78 0 0 1-.57.234.78.78 0 0 1-.572-.235.78.78 0 0 1-.234-.57m16.612 17.826v-8.188q0-1.319-.572-2.256-.555-.938-1.64-1.436-1.07-.498-2.622-.498-1.436 0-2.593.513-1.143.498-1.816 1.377a3.2 3.2 0 0 0-.66 1.978l-.79-.03q0-.922.424-1.758a4.9 4.9 0 0 1 1.216-1.479 6 6 0 0 1 1.86-1.01 7.1 7.1 0 0 1 2.359-.382q1.655 0 2.915.557 1.275.557 1.992 1.67t.718 2.783v7.94q0 .849.102 1.713.117.865.308 1.348v.132h-.908a9 9 0 0 1-.22-1.377 18 18 0 0 1-.073-1.597m.351-5.874.03.806h-4.131q-1.539 0-2.754.308-1.216.292-2.065.835-.85.54-1.304 1.289a3.13 3.13 0 0 0-.454 1.655q0 .953.512 1.743.528.79 1.45 1.26.924.469 2.125.469 1.67 0 2.959-.542a6.2 6.2 0 0 0 2.182-1.553 6.8 6.8 0 0 0 1.362-2.358l.352.732a6.6 6.6 0 0 1-.835 1.626 6.5 6.5 0 0 1-1.391 1.45q-.85.645-2.007 1.04-1.143.381-2.622.381-1.48 0-2.579-.542-1.098-.557-1.699-1.523-.6-.982-.6-2.242 0-1.054.498-1.933.498-.894 1.435-1.538.952-.66 2.315-1.011 1.362-.352 3.076-.352zm6.197-3.603V35.25h-.806V19.4h.806zm-.103 3.164-.425-.835a7.8 7.8 0 0 1 .63-2.241 7.3 7.3 0 0 1 1.289-1.934 6.2 6.2 0 0 1 1.861-1.348q1.07-.498 2.358-.498 1.202 0 2.139.323a3.8 3.8 0 0 1 1.596.981q.66.66.996 1.729.352 1.068.352 2.563V35.25h-.791V24.703q0-1.904-.557-2.944-.556-1.04-1.538-1.45-.981-.425-2.241-.425-1.494 0-2.549.674a5.7 5.7 0 0 0-1.728 1.655 8.2 8.2 0 0 0-1.011 2.021q-.338 1.026-.381 1.729m10.796-1.26-.542-.483a5.7 5.7 0 0 1 .645-1.92 6.2 6.2 0 0 1 1.318-1.64 6 6 0 0 1 1.875-1.128 6.5 6.5 0 0 1 2.373-.425q1.202 0 2.139.337a3.7 3.7 0 0 1 1.596 1.04q.66.704.996 1.817.352 1.113.352 2.695V35.25h-.791V24.996q0-2.021-.557-3.135-.556-1.114-1.538-1.552-.981-.44-2.241-.425-1.406.015-2.446.527a5.5 5.5 0 0 0-1.714 1.26 6 6 0 0 0-1.055 1.582q-.351.805-.41 1.45"/><defs><linearGradient id="a" x1="1" x2="45" y1="25" y2="25" gradientUnits="userSpaceOnUse"><stop stop-color="#00E0D0"/><stop offset="1" stop-color="#52A9CF"/></linearGradient><linearGradient id="b" x1="56" x2="131" y1="25" y2="25" gradientUnits="userSpaceOnUse"><stop stop-color="#00E0D0"/><stop offset="1" stop-color="#52A9CF"/></linearGradient></defs></svg>