<svg xmlns="http://www.w3.org/2000/svg" width="35" height="27" fill="none"><path fill="#fff" d="M9.17 26.7q-2.3 0-3.8-.9t-2.5-2.4q-1.002-1.6-1.5-3.6-.401-2-.4-3.6-.001-4.9 2.5-9 2.598-4.1 7.9-6.6l.9 1.8q-3 1.3-5.2 4-2.202 2.7-2.4 5.5-.202 1.5.2 2.8 1.8-1.7 4.4-1.7 2.9 0 4.9 1.9 1.999 1.8 2 5 0 3-2.1 4.9-2.001 1.9-4.9 1.9m18.2 0q-2.3 0-3.8-.9t-2.5-2.4q-1.002-1.6-1.5-3.6-.401-2-.4-3.6-.001-4.9 2.5-9 2.599-4.1 7.9-6.6l.9 1.8q-3 1.3-5.2 4t-2.4 5.5q-.201 1.5.2 2.8 1.8-1.7 4.4-1.7 2.9 0 4.9 1.9 2 1.8 2 5 0 3-2.1 4.9-2.001 1.9-4.9 1.9"/></svg>