<svg xmlns="http://www.w3.org/2000/svg" width="37" height="37" fill="none"><rect width="35" height="35" x="1" y="1" stroke="#fff" rx="17.5"/><path fill="#fff" d="M11.43 22.545c1.358-1.986 3.98-2.152 5.27-1.972-.359-.4-1.264-1.145-.625-2.373-2.914.373-3.846-1.49-3.979-2.952-.266-2.455 1.81-4.22 3.939-4.248h4.71c-.16.152-.944.69-1.13.69l-1.238.014c3.154 3.075.093 5.655-.533 6.192-1.264 1.587 2.702 2.373 2.489 5.063 0 2.44-1.983 4.041-5.083 4.041-3.447-.014-5.097-2.234-3.82-4.455m6.907 2.966c1.238-.98.945-2.428-.013-3.394-.573-.579-1.265-1.13-2.728-.951-1.717.207-2.968 1.062-2.901 2.4.359 2.841 4.311 2.91 5.642 1.93zm-.838-8.345c1.424-1.214.106-5.448-1.837-5.448-1.237 0-1.876.924-1.93 2.234-.092 2.428 2.05 4.676 3.767 3.214m6.294 1.544-2.142.014v-1.117h2.116v-2.193h1.078v2.194l2.142.013.013 1.104h-2.155v2.207l-1.065.014z"/></svg>